<?xml version="1.0" encoding="UTF-8" standalone="no"?><svg xmlns="http://www.w3.org/2000/svg" xmlns:xlink="http://www.w3.org/1999/xlink" fill="#000000" height="850.3" preserveAspectRatio="xMidYMid meet" version="1" viewBox="0.1 0.2 1094.1 850.3" width="1094.1" zoomAndPan="magnify"><g id="change1_1"><path d="M1094.08,57.51c0-.35,0-.7,0-1-.06-1.32-.16-2.62-.3-3.91,0-.23-.06-.45-.08-.67-.16-1.29-.36-2.56-.59-3.82l-.06-.33c-.28-1.46-.62-2.9-1-4.31l0-.11a59.59,59.59,0,0,0-3.09-8.55,1.42,1.42,0,0,1-.08-.18,59.52,59.52,0,0,0-4.17-7.6l-.3-.47c-.73-1.11-1.5-2.19-2.31-3.25l-.51-.65c-.73-.93-1.48-1.84-2.26-2.72l-.38-.43c-.87-1-1.77-1.88-2.69-2.77l-.68-.66c-1-.9-1.94-1.78-3-2.61l-.08-.07c-1-.85-2.11-1.65-3.2-2.42l-.49-.36c-1.14-.79-2.31-1.55-3.51-2.26l-.06,0c-1.24-.74-2.51-1.43-3.81-2.08l-.09,0c-1.31-.65-2.65-1.26-4-1.81l-.08,0a57.48,57.48,0,0,0-8.34-2.67l-.4-.09a57.56,57.56,0,0,0-8.36-1.32l-.87-.07c-1.38-.09-2.77-.16-4.17-.16H59c-1.4,0-2.79.07-4.16.16L54,.23a57.56,57.56,0,0,0-8.36,1.32l-.4.09a57.87,57.87,0,0,0-8.34,2.67l-.08,0c-1.36.55-2.7,1.16-4,1.81l-.09,0c-1.3.65-2.57,1.34-3.81,2.08l-.06,0c-1.2.71-2.36,1.47-3.51,2.26l-.49.36c-1.09.77-2.16,1.57-3.19,2.42l-.09.07c-1,.83-2,1.71-2.95,2.61l-.69.66c-.92.89-1.82,1.81-2.69,2.77l-.37.43c-.78.88-1.54,1.79-2.26,2.72-.18.21-.35.43-.52.65-.8,1.06-1.57,2.14-2.31,3.25l-.3.47a58.24,58.24,0,0,0-4.16,7.6l-.09.18a59.59,59.59,0,0,0-3.09,8.55l0,.11c-.38,1.41-.72,2.85-1,4.31,0,.11,0,.22-.05.32C.8,49.31.6,50.59.45,51.88l-.09.67C.22,53.84.12,55.14.07,56.46c0,.35,0,.7,0,1s0,1,0,1.52V791.5a59,59,0,0,0,59,59h976.06a59,59,0,0,0,59-59V59C1094.12,58.52,1094.1,58,1094.08,57.51ZM871.84,118.06,547.06,388.27,222.28,118.06ZM118.06,732.47V184.93L509.31,510.44a59,59,0,0,0,75.51,0L976.06,184.93V732.47Z" fill="#ffffff"/></g></svg>