<?xml version="1.0" encoding="UTF-8" standalone="no"?><svg xmlns="http://www.w3.org/2000/svg" xmlns:xlink="http://www.w3.org/1999/xlink" fill="#000000" height="750" preserveAspectRatio="xMidYMid meet" version="1" viewBox="0.0 0.0 750.0 750.0" width="750" zoomAndPan="magnify"><g id="change1_1"><path d="M640.2,109.8C569.3,39,475.2,0,375,0S180.7,39,109.8,109.8S0,274.8,0,375s39,194.3,109.8,265.2S274.8,750,375,750 s194.3-39,265.2-109.8S750,475.2,750,375S711,180.7,640.2,109.8z"/></g><g id="change2_1"><path d="M549.6,228.4c-8.5-7-21-5.8-28,2.6L317.9,474.6l-89.1-113.7c-6.8-8.6-19.3-10.1-27.9-3.4 c-8.6,6.8-10.1,19.3-3.4,28l0,0l104.3,133.1c3.7,4.7,9.3,7.5,15.3,7.6h0.4c5.9,0,11.5-2.6,15.2-7.2l219.4-262.5 C559.2,248.1,558.1,235.5,549.6,228.4C549.6,228.4,549.6,228.4,549.6,228.4z" fill="#000000"/></g></svg>