<?xml version="1.0" encoding="UTF-8" standalone="no"?><svg xmlns="http://www.w3.org/2000/svg" xmlns:xlink="http://www.w3.org/1999/xlink" fill="#000000" height="442" stroke="#000000" stroke-linecap="square" stroke-miterlimit="10" viewBox="0 0 437.65 442.27" width="438"><defs><clipPath id="a"><path d="M0 0V442.27H437.65V0Z"/></clipPath><clipPath clip-path="url(#a)" id="b"><path d="M-64.64 504.6H502.29V-62.33H-64.64Zm0 0"/></clipPath><clipPath clip-path="url(#b)" id="e"><path d="M-64.64-62.33H502.29V504.6H-64.64Zm0 0"/></clipPath><clipPath id="c"><path d="M0 0V442.27H437.65V0Z"/></clipPath><clipPath clip-path="url(#c)" id="d"><path d="M-64.64 504.6H502.29V-62.33H-64.64Zm0 0"/></clipPath><clipPath clip-path="url(#d)" id="g"><path d="M-64.64-62.33H502.29V504.6H-64.64Zm0 0"/></clipPath></defs><g><defs><linearGradient gradientTransform="scale(435.9711 -435.9711) rotate(75 .847 -.268)" gradientUnits="userSpaceOnUse" id="f" spreadMethod="pad" x1="0" x2="1" y1="0" y2="0"><stop offset="0%" stop-color="#03615b"/><stop offset="100%" stop-color="#03615b"/></linearGradient></defs><g fill="#ffffff" stroke="none"><path clip-path="url(#e)" d="M221.95 392.68c-54.17 0-97.54-29.28-97.54-29.28L57.87 385.12l21.59-64.43c0 0-34.49-47.75-34.49-104.99 0-97.75 79.24-176.99 176.98-176.99S398.94 117.95 398.94 215.7 319.7 392.68 221.95 392.68M221.95 5C105.59 5 11.26 99.33 11.26 215.7c0 57.75 30.58 109.37 30.58 109.37L5 437.27l115.45-36.89c0 0 42.86 26.02 101.51 26.02 116.36 0 210.7-94.33 210.7-210.7S338.32 5 221.95 5"/><path d="M277.1 315.1c13.71 0 33.29-6.19 43.49-17.21 12.51-13.5 9.62-27.54 9.38-32.23s-4.45-5.41-4.45-5.41S291 243.53 283.9 240.28c-1.66-.76-3.14-1.05-4.41-1.05-4.17 0-6.29 3.1-6.29 3.1s-10.47 13.23-13.84 17.56c-2.55 3.28-4.27 6.29-8.79 6.29-1.44 0-3.16-.3-5.28-1-8.78-2.89-26.39-12.37-40.78-25.26s-25.38-29.95-28.5-35.12c-3.13-5.18.48-8.42.48-8.42s9.11-10.5 13.47-16.12 1.64-11.9.6-14.44-15.04-35.41-17.08-40.05-6.49-5.41-6.49-5.41h-16.6c-2.97 0-8.66 3.61-8.66 3.61-17.06 10.92-19.95 36.4-20.45 41.9s-1 17.17 8 36.84c9 19.66 31 46.33 58.17 71.67 27.16 25.33 68.82 36.23 81.42 39.75 2.32.65 5.13.97 8.23.97l0 0Zm-55.14 77.58c-54.18 0-97.54-29.28-97.54-29.28L57.87 385.11l21.6-64.43c0 0-34.5-47.74-34.5-104.99 0-97.74 79.24-176.98 176.99-176.98 97.74 0 176.98 79.24 176.98 176.98S319.7 392.68 221.96 392.68Zm0 0" fill="url(#f)"/><path clip-path="url(#g)" d="M329.97 265.66c.24 4.69 3.13 18.73-9.38 32.23s-39.12 19.76-51.72 16.24-54.26-14.42-81.42-39.75-49.17-52.01-58.17-71.67-8.5-31.34-8-36.84 3.39-30.98 20.45-41.9c0 0 5.69-3.61 8.66-3.61h16.6c0 0 4.45.77 6.49 5.41s16.04 37.52 17.08 40.05c1.04 2.54 3.76 8.82-.6 14.44s-13.47 16.12-13.47 16.12-3.61 3.24-.48 8.42 14.12 22.23 28.5 35.12 32 22.37 40.78 25.26 10.71-.96 14.07-5.29 13.84-17.56 13.84-17.56 3.61-5.3 10.7-2.05 41.62 19.97 41.62 19.97 4.21.72 4.45 5.41"/></g></g></svg>