<?xml version="1.0" encoding="UTF-8"?><svg xmlns="http://www.w3.org/2000/svg" xmlns:xlink="http://www.w3.org/1999/xlink" height="750.0" preserveAspectRatio="xMidYMid meet" version="1.0" viewBox="0.0 0.0 750.0 750.0" width="750.0" zoomAndPan="magnify"><g id="change1_1"><circle cx="375" cy="375" r="375"/></g><g id="change2_1"><path d="M366.5,127.4,131.3,339.1a12.6,12.6,0,0,0,8.4,22h47.6V562.9a12.5,12.5,0,0,0,12.6,12.6H320.7a12.5,12.5,0,0,0,12.6-12.6V414.7h83.3V562.9a12.5,12.5,0,0,0,12.6,12.6H550a12.5,12.5,0,0,0,12.6-12.6V361.1h47.6c11.6,0,17-14.3,8.5-22L383.4,127.4A12.5,12.5,0,0,0,366.5,127.4Z" fill="#fff"/></g></svg>