<?xml version="1.0" encoding="UTF-8" standalone="no"?><svg xmlns="http://www.w3.org/2000/svg" xmlns:xlink="http://www.w3.org/1999/xlink" fill="#ffffff" height="779.7" preserveAspectRatio="xMidYMid meet" version="1" viewBox="-2.9 -5.5 604.1 779.7" width="604.1" zoomAndPan="magnify"><g id="change1_1"><path d="M599.5,636.8,517.1,509.1a39.4,39.4,0,0,0-54.4-11.7l-76.4,49.4S317.1,508,258.8,417.7c-50.6-78.4-62-164.5-62-164.5l76.5-49.3A39.5,39.5,0,0,0,285,149.5l-84-130A39.3,39.3,0,0,0,146.7,7.8L32.7,81.4A57.9,57.9,0,0,0,6.8,139.5c11,66.7,43.9,211,135.7,353.3,86.1,133.4,209,228.6,266.9,269a58.1,58.1,0,0,0,64.3,1.5l113.8-71.9A39.3,39.3,0,0,0,599.5,636.8Z" transform="translate(-6 -1.5)"/></g></svg>